<?xml version="1.0" encoding="UTF-8"?>
<svg viewBox="0 0 60 60" xmlns="http://www.w3.org/2000/svg">
 <path transform="matrix(1.0905 0 0 1.2616 -.40196 -4.4921)" d="m9.3778 12.854h37.567a2 2 0 0 1 2 2v30.73a2 2 0 0 1 -2 2h-37.567a2 2 0 0 1 -2 -2v-30.73a2 2 0 0 1 2 -2" fill="#b3b3b3" fill-rule="evenodd"/>
 <path transform="matrix(1.0905 0 0 1.0905 -1.9717 -3.216)" d="m9.5371 25.012h40.668" fill="none" stroke="#7f7f7f" stroke-width="1.25"/>
 <path transform="matrix(1.0905 0 0 1.0905 -1.9717 -3.216)" d="m8.8174 44.23h41.927" fill="none" stroke="#7f7f7f" stroke-width="1.25"/>
 <path transform="matrix(1.0905 0 0 1.0905 -1.9717 -3.216)" d="m9.5371 34.621h40.668" fill="none" stroke="#7f7f7f" stroke-width="1.25"/>
 <path transform="matrix(1.0905 0 0 1.0905 -1.9717 -3.216)" d="m19.042 15.553v38.508" fill="none" stroke="#7f7f7f" stroke-width="1.25"/>
 <path transform="matrix(1.0905 0 0 1.0905 -1.9717 -3.216)" d="m29.447 15.553v38.508" fill="none" stroke="#7f7f7f" stroke-width="1.25"/>
 <path transform="matrix(1.0905 0 0 1.0905 -1.9717 -3.216)" d="m39.852 15.553v38.508" fill="none" stroke="#7f7f7f" stroke-width="1.25"/>
 <path d="m9.8241 11.725h40.966a2.1809 2.1809 0 0 1 2.1809 2.1809v39.453a2.1809 2.1809 0 0 1 -2.1809 2.1809h-40.966a2.1809 2.1809 0 0 1 -2.1809 -2.1809v-39.453a2.1809 2.1809 0 0 1 2.1809 -2.1809" fill="none" stroke="#7f7f7f" stroke-linejoin="round" stroke-width="1.875"/>
 <path transform="matrix(1.0194 0 0 .76673 1.4101 .38113)" d="m4.5192 5.6564h47.465a2 2 0 0 1 2 2v7.5165a2 2 0 0 1 -2 2h-47.465a2 2 0 0 1 -2 -2v-7.5165a2 2 0 0 1 2 -2" fill="#4c4c4c" fill-rule="evenodd" stroke="#333" stroke-linecap="round" stroke-linejoin="round" stroke-width="2.8278"/>
 <path d="m12.837 35.958c4.4471 4.0471 7.3212 7.6898 12.078 16.132 10.342-26.104 24.502-32.806 22.706-33.962-3.633-2.4377-21.308 17.996-23.445 20.692-2.5706-1.361-11.339-6.118-11.339-2.8616z" fill="#333" fill-rule="evenodd" stroke="#333" stroke-linecap="round" stroke-linejoin="round" stroke-width="1.875"/>
</svg>
